# xmcd
#
# Track frame offsets: 
#        150
#        4703
#        24646
#        45345
#        63776
#        83611
#        106875
#        126872
#        150244
#        169593
#        190265
#        193900
#        213033
#        229412
#
# Disc length: 3353 seconds
#
# Revision: 0
# Processed by: cddbd v1.5.2PL0 Copyright (c) Steve Scherf et al.
# Submitted via: ExactAudioCopy v0.99pb5
#
DISCID=a40d170e
DTITLE=Dice and K9 Mobbstarr - Mobb Music
DYEAR=2003
DGENRE=Hip-Hop
TTITLE0=4 Ur System
TTITLE1=Bounce
TTITLE2=Surprise! feat Mutley and Trapp
TTITLE3=The Scenario feat Hi-C
TTITLE4=Slowly
TTITLE5=Return 2 Dirty South feat Menace
TTITLE6=Can't Stop, Won't Stop feat De Loop and Skinny
TTITLE7=Can U Feel Me?
TTITLE8=G-Ride feat 6000 Goonz
TTITLE9=Deja Vu feat John Dogg and Hi-C
TTITLE10=Mezzo Forte
TTITLE11=Itsumo feat Sashi Yuichiro
TTITLE12=Like That feat Trapp
TTITLE13=Apart feat Urbandub and Powerspoonz
EXTD=
EXTT0=
EXTT1=
EXTT2=
EXTT3=
EXTT4=
EXTT5=
EXTT6=
EXTT7=
EXTT8=
EXTT9=
EXTT10=
EXTT11=
EXTT12=
EXTT13=
PLAYORDER=
